{"asset":{"generator":"Khronos glTF Spline I/O v0.0.1","version":"2.0"},"scenes":[{"nodes":[0]}],"nodes":[{"name":"","children":[1,2,3,4,5,6,7,8,9,10,11,12]},{"name":"Point Light 3","translation":[25.00000000000344,45.54033598632445,-6.001679808192421],"extensions":{"KHR_lights_punctual":{"light":0}}},{"name":"Point Light 2","translation":[-17.67766952966049,5.0000000000000915,0],"extensions":{"KHR_lights_punctual":{"light":1}}},{"name":"Point Light","translation":[16.013311275930775,5.000000000000084,0],"extensions":{"KHR_lights_punctual":{"light":2}}},{"name":"Torus 7","matrix":[1.110223024625181e-15,0.6959766811045925,-0.7180643838533423,0,1.0000000000000129,4.440892098500684e-16,1.7208456881690151e-15,0,7.055630125393253e-15,-3.3802995976770407,-3.2763213829178772,0,0,0,0,1],"mesh":0},{"name":"Torus 6","matrix":[-1.554312234475243e-15,0.7100117194311516,0.7041898595339545,0,1.0000000000000004,0,1.7208456881689934e-15,0,5.487712319750161e-15,3.3149850520326023,-3.342391550824008,0,0,0,0,1],"mesh":1},{"name":"Torus 5","matrix":[2.220446049250337e-16,1.0000000000000109,1.2246467991473668e-16,0,0.9999999999999937,-2.220446049250299e-16,1.4172690798730425e-15,0,6.671816912553297e-15,5.765044438270977e-16,-4.70751603016056,0,0,0,0,1],"mesh":2},{"name":"Torus 4","matrix":[0,-5.551115123125743e-17,0.9999999999999929,0,0.7082347514938057,0.7059770086740677,-5.551115123125441e-17,0,-3.3233980852579283,3.3340264457738242,0,0,0,0,0,1],"mesh":3},{"name":"Torus 3","matrix":[-6.661338147750884e-16,-2.2204460492502948e-16,0.9999999999999918,0,-0.7071067811865053,0.7071067811865055,-2.2204460492501805e-16,0,-3.3287165074706495,-3.3287165074706486,-3.135835611285516e-15,0,0,0,0,1],"mesh":4},{"name":"Torus 2","matrix":[2.2204460492502835e-16,7.85046229341877e-17,0.9999999999999865,0,-2.355138688025523e-16,0.9999999999999407,-7.850462293418409e-17,0,-4.707516030160174,-1.108685312713121e-15,1.0452785370951678e-15,0,0,0,0,1],"mesh":5},{"name":"Torus","matrix":[-1.3322676295501516e-15,-7.771561172375884e-16,0.9999999999999727,0,0.9999999999999408,-4.440892098500364e-16,1.3877787807813636e-15,0,2.3518767084640938e-15,4.707516030160107,4.181114148380611e-15,0,0,0,0,1],"mesh":6},{"name":"Sphere","matrix":[-1.3322676295501782e-15,-5.551115123125742e-16,0.9999999999999925,0,1,-4.4408920985006257e-16,1.4432899320127031e-15,0,2.220446049250314e-16,1.0000000000000002,6.661338147750939e-16,0,-8.326672684688673e-17,0,8.049116928532384e-16,1],"mesh":7},{"name":"personal","camera":0,"translation":[-214.06663383699296,327.5841716040105,-899.7599351268493],"rotation":[0.018431600094959068,0.9796156992680358,0.169185259508314,-0.10672256476791246]}],"cameras":[{"type":"orthographic","orthographic":{"xmag":1920,"ymag":941,"zfar":500000,"znear":-500000}}],"meshes":[{"primitives":[{"attributes":{"POSITION":1,"NORMAL":2,"TEXCOORD_0":3},"indices":0}]},{"primitives":[{"attributes":{"POSITION":5,"NORMAL":6,"TEXCOORD_0":7},"indices":4}]},{"primitives":[{"attributes":{"POSITION":9,"NORMAL":10,"TEXCOORD_0":11},"indices":8}]},{"primitives":[{"attributes":{"POSITION":13,"NORMAL":14,"TEXCOORD_0":15},"indices":12}]},{"primitives":[{"attributes":{"POSITION":17,"NORMAL":18,"TEXCOORD_0":19},"indices":16}]},{"primitives":[{"attributes":{"POSITION":21,"NORMAL":22,"TEXCOORD_0":23},"indices":20}]},{"primitives":[{"attributes":{"POSITION":25,"NORMAL":26,"TEXCOORD_0":27},"indices":24}]},{"primitives":[{"attributes":{"POSITION":29,"NORMAL":30,"TEXCOORD_0":31},"indices":28}]}],"buffers":[{"uri":"data:application/octet-stream;base64,","byteLength":95328},{"uri":"data:application/octet-stream;base64,","byteLength":95328},{"uri":"data:application/octet-stream;base64,","byteLength":95328},{"uri":"data:application/octet-stream;base64,","byteLength":95328},{"uri":"data:application/octet-stream;base64,","byteLength":95328},{"uri":"data:application/octet-stream;base64,","byteLength":95328},{"uri":"data:application/octet-stream;base64,","byteLength":95328},{"uri":"data:application/octet-stream;base64,","byteLength":183584}],"bufferViews":[{"buffer":0,"byteOffset":0,"byteLength":24576,"target":34963},{"buffer":0,"byteOffset":24576,"byteLength":26532,"target":34962},{"buffer":0,"byteOffset":51108,"byteLength":26532,"target":34962},{"buffer":0,"byteOffset":77640,"byteLength":17688,"target":34962},{"buffer":1,"byteOffset":0,"byteLength":24576,"target":34963},{"buffer":1,"byteOffset":24576,"byteLength":26532,"target":34962},{"buffer":1,"byteOffset":51108,"byteLength":26532,"target":34962},{"buffer":1,"byteOffset":77640,"byteLength":17688,"target":34962},{"buffer":2,"byteOffset":0,"byteLength":24576,"target":34963},{"buffer":2,"byteOffset":24576,"byteLength":26532,"target":34962},{"buffer":2,"byteOffset":51108,"byteLength":26532,"target":34962},{"buffer":2,"byteOffset":77640,"byteLength":17688,"target":34962},{"buffer":3,"byteOffset":0,"byteLength":24576,"target":34963},{"buffer":3,"byteOffset":24576,"byteLength":26532,"target":34962},{"buffer":3,"byteOffset":51108,"byteLength":26532,"target":34962},{"buffer":3,"byteOffset":77640,"byteLength":17688,"target":34962},{"buffer":4,"byteOffset":0,"byteLength":24576,"target":34963},{"buffer":4,"byteOffset":24576,"byteLength":26532,"target":34962},{"buffer":4,"byteOffset":51108,"byteLength":26532,"target":34962},{"buffer":4,"byteOffset":77640,"byteLength":17688,"target":34962},{"buffer":5,"byteOffset":0,"byteLength":24576,"target":34963},{"buffer":5,"byteOffset":24576,"byteLength":26532,"target":34962},{"buffer":5,"byteOffset":51108,"byteLength":26532,"target":34962},{"buffer":5,"byteOffset":77640,"byteLength":17688,"target":34962},{"buffer":6,"byteOffset":0,"byteLength":24576,"target":34963},{"buffer":6,"byteOffset":24576,"byteLength":26532,"target":34962},{"buffer":6,"byteOffset":51108,"byteLength":26532,"target":34962},{"buffer":6,"byteOffset":77640,"byteLength":17688,"target":34962},{"buffer":7,"byteOffset":0,"byteLength":48384,"target":34963},{"buffer":7,"byteOffset":48384,"byteLength":50700,"target":34962},{"buffer":7,"byteOffset":99084,"byteLength":50700,"target":34962},{"buffer":7,"byteOffset":149784,"byteLength":33800,"target":34962}],"accessors":[{"bufferView":0,"byteOffset":0,"componentType":5123,"count":12288,"type":"SCALAR","min":[33],"max":[2144]},{"bufferView":1,"byteOffset":0,"componentType":5126,"count":2211,"type":"VEC3","min":[-25,-25,-0.5005000233650208],"max":[25,25,0.5005000233650208]},{"bufferView":2,"byteOffset":0,"componentType":5126,"count":2211,"type":"VEC3","min":[-1,-1,-1],"max":[1,1,1]},{"bufferView":3,"byteOffset":0,"componentType":5126,"count":2211,"type":"VEC2","min":[0,0],"max":[0.9967716336250305,1]},{"bufferView":4,"byteOffset":0,"componentType":5123,"count":12288,"type":"SCALAR","min":[33],"max":[2144]},{"bufferView":5,"byteOffset":0,"componentType":5126,"count":2211,"type":"VEC3","min":[-25,-25,-0.5005000233650208],"max":[25,25,0.5005000233650208]},{"bufferView":6,"byteOffset":0,"componentType":5126,"count":2211,"type":"VEC3","min":[-1,-1,-1],"max":[1,1,1]},{"bufferView":7,"byteOffset":0,"componentType":5126,"count":2211,"type":"VEC2","min":[0,0],"max":[0.9967716336250305,1]},{"bufferView":8,"byteOffset":0,"componentType":5123,"count":12288,"type":"SCALAR","min":[33],"max":[2144]},{"bufferView":9,"byteOffset":0,"componentType":5126,"count":2211,"type":"VEC3","min":[-25,-25,-0.5005000233650208],"max":[25,25,0.5005000233650208]},{"bufferView":10,"byteOffset":0,"componentType":5126,"count":2211,"type":"VEC3","min":[-1,-1,-1],"max":[1,1,1]},{"bufferView":11,"byteOffset":0,"componentType":5126,"count":2211,"type":"VEC2","min":[0,0],"max":[0.9967716336250305,1]},{"bufferView":12,"byteOffset":0,"componentType":5123,"count":12288,"type":"SCALAR","min":[33],"max":[2144]},{"bufferView":13,"byteOffset":0,"componentType":5126,"count":2211,"type":"VEC3","min":[-25,-25,-0.5005000233650208],"max":[25,25,0.5005000233650208]},{"bufferView":14,"byteOffset":0,"componentType":5126,"count":2211,"type":"VEC3","min":[-1,-1,-1],"max":[1,1,1]},{"bufferView":15,"byteOffset":0,"componentType":5126,"count":2211,"type":"VEC2","min":[0,0],"max":[0.9967716336250305,1]},{"bufferView":16,"byteOffset":0,"componentType":5123,"count":12288,"type":"SCALAR","min":[33],"max":[2144]},{"bufferView":17,"byteOffset":0,"componentType":5126,"count":2211,"type":"VEC3","min":[-25,-25,-0.5005000233650208],"max":[25,25,0.5005000233650208]},{"bufferView":18,"byteOffset":0,"componentType":5126,"count":2211,"type":"VEC3","min":[-1,-1,-1],"max":[1,1,1]},{"bufferView":19,"byteOffset":0,"componentType":5126,"count":2211,"type":"VEC2","min":[0,0],"max":[0.9967716336250305,1]},{"bufferView":20,"byteOffset":0,"componentType":5123,"count":12288,"type":"SCALAR","min":[33],"max":[2144]},{"bufferView":21,"byteOffset":0,"componentType":5126,"count":2211,"type":"VEC3","min":[-25,-25,-0.5005000233650208],"max":[25,25,0.5005000233650208]},{"bufferView":22,"byteOffset":0,"componentType":5126,"count":2211,"type":"VEC3","min":[-1,-1,-1],"max":[1,1,1]},{"bufferView":23,"byteOffset":0,"componentType":5126,"count":2211,"type":"VEC2","min":[0,0],"max":[0.9967716336250305,1]},{"bufferView":24,"byteOffset":0,"componentType":5123,"count":12288,"type":"SCALAR","min":[33],"max":[2144]},{"bufferView":25,"byteOffset":0,"componentType":5126,"count":2211,"type":"VEC3","min":[-25,-25,-0.5005000233650208],"max":[25,25,0.5005000233650208]},{"bufferView":26,"byteOffset":0,"componentType":5126,"count":2211,"type":"VEC3","min":[-1,-1,-1],"max":[1,1,1]},{"bufferView":27,"byteOffset":0,"componentType":5126,"count":2211,"type":"VEC2","min":[0,0],"max":[0.9967716336250305,1]},{"bufferView":28,"byteOffset":0,"componentType":5123,"count":24192,"type":"SCALAR","min":[0],"max":[4224]},{"bufferView":29,"byteOffset":0,"componentType":5126,"count":4225,"type":"VEC3","min":[-5,-5,-5],"max":[5,5,5]},{"bufferView":30,"byteOffset":0,"componentType":5126,"count":4225,"type":"VEC3","min":[-1,-1,-1],"max":[1,1,1]},{"bufferView":31,"byteOffset":0,"componentType":5126,"count":4225,"type":"VEC2","min":[-0.0078125,0],"max":[1.0078125,1]}],"extensions":{"KHR_lights_punctual":{"lights":[{"type":"point","name":"Point Light 3","color":[1,1,1],"intensity":1,"range":2000},{"type":"point","name":"Point Light 2","color":[1,1,1],"intensity":1,"range":2000},{"type":"point","name":"Point Light","color":[1,1,1],"intensity":1,"range":2000}]}},"extensionsUsed":["KHR_lights_punctual"]}